{
 "cells": [
  {
   "cell_type": "code",
   "execution_count": 69,
   "metadata": {},
   "outputs": [
    {
     "name": "stdout",
     "output_type": "stream",
     "text": [
      "['ffmpeg', '-y', '-i', '/mnt/disk1/tapearchive/A4/211008_0016.wav', '-filter_complex', 'acopy[out];[out]dynaudnorm=framelen=1000:maxgain=3:coupling=false[out]', '-map', '[out]', '/home/caiwan/test3.flac']\n"
     ]
    },
    {
     "name": "stderr",
     "output_type": "stream",
     "text": [
      "ffmpeg version n4.4 Copyright (c) 2000-2021 the FFmpeg developers\n",
      "  built with gcc 11.1.0 (GCC)\n",
      "  configuration: --prefix=/usr --disable-debug --disable-static --disable-stripping --enable-amf --enable-avisynth --enable-cuda-llvm --enable-lto --enable-fontconfig --enable-gmp --enable-gnutls --enable-gpl --enable-ladspa --enable-libaom --enable-libass --enable-libbluray --enable-libdav1d --enable-libdrm --enable-libfreetype --enable-libfribidi --enable-libgsm --enable-libiec61883 --enable-libjack --enable-libmfx --enable-libmodplug --enable-libmp3lame --enable-libopencore_amrnb --enable-libopencore_amrwb --enable-libopenjpeg --enable-libopus --enable-libpulse --enable-librav1e --enable-librsvg --enable-libsoxr --enable-libspeex --enable-libsrt --enable-libssh --enable-libsvtav1 --enable-libtheora --enable-libv4l2 --enable-libvidstab --enable-libvmaf --enable-libvorbis --enable-libvpx --enable-libwebp --enable-libx264 --enable-libx265 --enable-libxcb --enable-libxml2 --enable-libxvid --enable-libzimg --enable-nvdec --enable-nvenc --enable-shared --enable-version3\n",
      "  libavutil      56. 70.100 / 56. 70.100\n",
      "  libavcodec     58.134.100 / 58.134.100\n",
      "  libavformat    58. 76.100 / 58. 76.100\n",
      "  libavdevice    58. 13.100 / 58. 13.100\n",
      "  libavfilter     7.110.100 /  7.110.100\n",
      "  libswscale      5.  9.100 /  5.  9.100\n",
      "  libswresample   3.  9.100 /  3.  9.100\n",
      "  libpostproc    55.  9.100 / 55.  9.100\n",
      "Guessed Channel Layout for Input Stream #0.0 : stereo\n",
      "Input #0, wav, from '/mnt/disk1/tapearchive/A4/211008_0016.wav':\n",
      "  Duration: 01:04:59.66, bitrate: 3072 kb/s\n",
      "  Stream #0:0: Audio: pcm_s16le ([1][0][0][0] / 0x0001), 96000 Hz, stereo, s16, 3072 kb/s\n",
      "Stream mapping:\n",
      "  Stream #0:0 (pcm_s16le) -> acopy\n",
      "  dynaudnorm -> Stream #0:0 (flac)\n",
      "Press [q] to stop, [?] for help\n",
      "[flac @ 0x556a6779bec0] encoding as 24 bits-per-sample\n",
      "Output #0, flac, to '/home/caiwan/test3.flac':\n",
      "  Metadata:\n",
      "    encoder         : Lavf58.76.100\n",
      "  Stream #0:0: Audio: flac, 96000 Hz, stereo, s32 (24 bit), 128 kb/s\n",
      "    Metadata:\n",
      "      encoder         : Lavc58.134.100 flac\n",
      "size= 1453521kB time=01:04:59.66 bitrate=3053.4kbits/s speed= 198x    \n",
      "video:0kB audio:1453513kB subtitle:0kB other streams:0kB global headers:0kB muxing overhead: 0.000557%\n"
     ]
    },
    {
     "name": "stdout",
     "output_type": "stream",
     "text": [
      "b'' None\n"
     ]
    }
   ],
   "source": [
    "import subprocess\n",
    "\n",
    "infile=\"/mnt/disk1/tapearchive/A4/211008_0016.wav\" \n",
    "outfile = \"/home/caiwan/test3.flac\"\n",
    "\n",
    "filter_stack = \";\".join([\n",
    "    \"acopy[out]\",\n",
    "    \"[out]channelsplit=channel_layout=stereo:channels=FL[out]\"\n",
    "    \"[out]dynaudnorm=framelen=1000:maxgain=3:coupling=false[out]\"\n",
    "])\n",
    "\n",
    "ffmpeg_commnad=f\"ffmpeg -y -i {infile} -filter_complex {filter_stack} -map [out] {outfile}\"\n",
    "\n",
    "print(ffmpeg_commnad.split())\n",
    "\n",
    "ffmpeg_process = subprocess.Popen(ffmpeg_commnad.split(), stdout=subprocess.PIPE, stdin=subprocess.PIPE)\n",
    "\n",
    "while ffmpeg_process.poll() is None:\n",
    "    try:\n",
    "        stdout_data, stderr_data = ffmpeg_process.communicate(timeout=30)\n",
    "    except subprocess.TimeoutExpired:\n",
    "        ffmpeg_process.kill()\n",
    "        stdout_data, stderr_data = ffmpeg_process.communicate()\n",
    "    print(stdout_data, stderr_data)"
   ]
  },
  {
   "cell_type": "code",
   "execution_count": 1,
   "metadata": {},
   "outputs": [],
   "source": [
    "import sys\n",
    "import logging\n",
    "\n",
    "\n",
    "LOGGER = logging.getLogger()\n",
    "LOGGER.setLevel(logging.DEBUG)\n",
    "\n",
    "handler = logging.StreamHandler(sys.stderr)\n",
    "\n",
    "formatter = logging.Formatter('%(threadName)s: %(name)s - %(levelname)s - %(message)s')\n",
    "handler.setFormatter(formatter)\n",
    "\n",
    "LOGGER.handlers = [handler]"
   ]
  },
  {
   "cell_type": "code",
   "execution_count": 3,
   "metadata": {},
   "outputs": [
    {
     "name": "stderr",
     "output_type": "stream",
     "text": [
      "MainThread: root - DEBUG - {<class 'tapearchive.workflow.audio_convert.ConvertAudio'>: [<function AudioConverterHandler.convert_audio at 0x7f0a81856040>], <class 'tapearchive.workflow.audio_convert.AudioConversionDone'>: [<function AudioConverterHandler.conversion_done at 0x7f0a81844d30>], <class 'tapearchive.workflow.audio_convert.AudioConversionError'>: [<function AudioConverterHandler.conversion_error at 0x7f0a81844700>]}\n",
      "MainThread: tq.task_dispacher - DEBUG - Task posted: ConvertAudio(source='/mnt/disk1/tapearchive/B4/211014_0050.wav', source_channel=<ChannelMode.LEFT: 'left'>, target='/home/caiwan/test_L.flac')\n",
      "MainThread: tq.task_dispacher - DEBUG - Task posted: ConvertAudio(source='/mnt/disk1/tapearchive/B4/211014_0050.wav', source_channel=<ChannelMode.RIGHT: 'right'>, target='/home/caiwan/test_R.flac')\n",
      "Thread-9: tq.task_dispacher - DEBUG - dispatch loop_tick\n",
      "Thread-9: tq.task_dispacher - INFO - Dispatch task: ConvertAudio(source='/mnt/disk1/tapearchive/B4/211014_0050.wav', source_channel=<ChannelMode.LEFT: 'left'>, target='/home/caiwan/test_L.flac')\n",
      "Thread-9: tq.task_dispacher - DEBUG - Create job = <function AudioConverterHandler.convert_audio at 0x7f0a81856040> for task = ConvertAudio(source='/mnt/disk1/tapearchive/B4/211014_0050.wav', source_channel=<ChannelMode.LEFT: 'left'>, target='/home/caiwan/test_L.flac')\n",
      "Thread-9: tapearchive.workflow.audio_convert - DEBUG - FFMPEG command: ffmpeg -y -i /mnt/disk1/tapearchive/B4/211014_0050.wav -filter_complex [0:a]channelsplit=channel_layout=stereo:channels=FL[in];[in]dynaudnorm=framelen=1000:maxgain=3:coupling=false[out] -map [out] /home/caiwan/test_L.flac\n",
      "Thread-9: tq.task_dispacher - DEBUG - schedule dispatch next tick\n",
      "Thread-12: tq.task_dispacher - DEBUG - dispatch loop_tick\n",
      "Thread-12: tq.task_dispacher - INFO - Dispatch task: ConvertAudio(source='/mnt/disk1/tapearchive/B4/211014_0050.wav', source_channel=<ChannelMode.RIGHT: 'right'>, target='/home/caiwan/test_R.flac')\n",
      "Thread-12: tq.task_dispacher - DEBUG - Create job = <function AudioConverterHandler.convert_audio at 0x7f0a81856040> for task = ConvertAudio(source='/mnt/disk1/tapearchive/B4/211014_0050.wav', source_channel=<ChannelMode.RIGHT: 'right'>, target='/home/caiwan/test_R.flac')\n",
      "Thread-12: tapearchive.workflow.audio_convert - DEBUG - FFMPEG command: ffmpeg -y -i /mnt/disk1/tapearchive/B4/211014_0050.wav -filter_complex [0:a]channelsplit=channel_layout=stereo:channels=FR[in];[in]dynaudnorm=framelen=1000:maxgain=3:coupling=false[out] -map [out] /home/caiwan/test_R.flac\n",
      "Thread-12: tq.task_dispacher - DEBUG - schedule dispatch next tick\n",
      "Thread-8: tq.task_dispacher - DEBUG - dispatch loop_tick\n",
      "Thread-9: tapearchive.workflow.audio_convert - ERROR - ffmpeg version n4.4 Copyright (c) 2000-2021 the FFmpeg developers\n",
      "  built with gcc 11.1.0 (GCC)\n",
      "  configuration: --prefix=/usr --disable-debug --disable-static --disable-stripping --enable-amf --enable-avisynth --enable-cuda-llvm --enable-lto --enable-fontconfig --enable-gmp --enable-gnutls --enable-gpl --enable-ladspa --enable-libaom --enable-libass --enable-libbluray --enable-libdav1d --enable-libdrm --enable-libfreetype --enable-libfribidi --enable-libgsm --enable-libiec61883 --enable-libjack --enable-libmfx --enable-libmodplug --enable-libmp3lame --enable-libopencore_amrnb --enable-libopencore_amrwb --enable-libopenjpeg --enable-libopus --enable-libpulse --enable-librav1e --enable-librsvg --enable-libsoxr --enable-libspeex --enable-libsrt --enable-libssh --enable-libsvtav1 --enable-libtheora --enable-libv4l2 --enable-libvidstab --enable-libvmaf --enable-libvorbis --enable-libvpx --enable-libwebp --enable-libx264 --enable-libx265 --enable-libxcb --enable-libxml2 --enable-libxvid --enable-libzimg --enable-nvdec --enable-nvenc --enable-shared --enable-version3\n",
      "  libavutil      56. 70.100 / 56. 70.100\n",
      "  libavcodec     58.134.100 / 58.134.100\n",
      "  libavformat    58. 76.100 / 58. 76.100\n",
      "  libavdevice    58. 13.100 / 58. 13.100\n",
      "  libavfilter     7.110.100 /  7.110.100\n",
      "  libswscale      5.  9.100 /  5.  9.100\n",
      "  libswresample   3.  9.100 /  3.  9.100\n",
      "  libpostproc    55.  9.100 / 55.  9.100\n",
      "Guessed Channel Layout for Input Stream #0.0 : stereo\n",
      "Input #0, wav, from '/mnt/disk1/tapearchive/B4/211014_0050.wav':\n",
      "  Duration: 02:09:53.42, bitrate: 1536 kb/s\n",
      "  Stream #0:0: Audio: pcm_s16le ([1][0][0][0] / 0x0001), 48000 Hz, stereo, s16, 1536 kb/s\n",
      "Stream mapping:\n",
      "  Stream #0:0 (pcm_s16le) -> channelsplit\n",
      "  dynaudnorm -> Stream #0:0 (flac)\n",
      "Press [q] to stop, [?] for help\n",
      "[flac @ 0x562542690980] encoding as 24 bits-per-sample\n",
      "Output #0, flac, to '/home/caiwan/test_L.flac':\n",
      "  Metadata:\n",
      "    encoder         : Lavf58.76.100\n",
      "    WAVEFORMATEXTENSIBLE_CHANNEL_MASK: 0x1\n",
      "  Stream #0:0: Audio: flac, 48000 Hz, 1 channels (FL), s32 (24 bit), 128 kb/s\n",
      "    Metadata:\n",
      "      encoder         : Lavc58.134.100 flac\n",
      "size=  531148kB time=02:09:53.42 bitrate= 558.3kbits/s speed= 718x    \n",
      "video:0kB audio:531140kB subtitle:0kB other streams:0kB global headers:0kB muxing overhead: 0.001531%\n",
      "\n",
      "Thread-10: tq.task_dispacher - DEBUG - Task posted: AudioConversionDone(task=ConvertAudio(source='/mnt/disk1/tapearchive/B4/211014_0050.wav', source_channel=<ChannelMode.LEFT: 'left'>, target='/home/caiwan/test_L.flac'))\n",
      "Thread-8: tq.task_dispacher - INFO - Dispatch task: AudioConversionDone(task=ConvertAudio(source='/mnt/disk1/tapearchive/B4/211014_0050.wav', source_channel=<ChannelMode.LEFT: 'left'>, target='/home/caiwan/test_L.flac'))\n",
      "Thread-8: tq.task_dispacher - DEBUG - Create job = <function AudioConverterHandler.conversion_done at 0x7f0a81844d30> for task = AudioConversionDone(task=ConvertAudio(source='/mnt/disk1/tapearchive/B4/211014_0050.wav', source_channel=<ChannelMode.LEFT: 'left'>, target='/home/caiwan/test_L.flac'))\n",
      "Thread-12: tapearchive.workflow.audio_convert - INFO - Conversion done: AudioConversionDone(task=ConvertAudio(source='/mnt/disk1/tapearchive/B4/211014_0050.wav', source_channel=<ChannelMode.LEFT: 'left'>, target='/home/caiwan/test_L.flac'))\n",
      "Thread-8: tq.task_dispacher - DEBUG - schedule dispatch next tick\n",
      "Thread-12: tq.task_dispacher - DEBUG - dispatch loop_tick\n",
      "Thread-14: tapearchive.workflow.audio_convert - ERROR - ffmpeg version n4.4 Copyright (c) 2000-2021 the FFmpeg developers\n",
      "  built with gcc 11.1.0 (GCC)\n",
      "  configuration: --prefix=/usr --disable-debug --disable-static --disable-stripping --enable-amf --enable-avisynth --enable-cuda-llvm --enable-lto --enable-fontconfig --enable-gmp --enable-gnutls --enable-gpl --enable-ladspa --enable-libaom --enable-libass --enable-libbluray --enable-libdav1d --enable-libdrm --enable-libfreetype --enable-libfribidi --enable-libgsm --enable-libiec61883 --enable-libjack --enable-libmfx --enable-libmodplug --enable-libmp3lame --enable-libopencore_amrnb --enable-libopencore_amrwb --enable-libopenjpeg --enable-libopus --enable-libpulse --enable-librav1e --enable-librsvg --enable-libsoxr --enable-libspeex --enable-libsrt --enable-libssh --enable-libsvtav1 --enable-libtheora --enable-libv4l2 --enable-libvidstab --enable-libvmaf --enable-libvorbis --enable-libvpx --enable-libwebp --enable-libx264 --enable-libx265 --enable-libxcb --enable-libxml2 --enable-libxvid --enable-libzimg --enable-nvdec --enable-nvenc --enable-shared --enable-version3\n",
      "  libavutil      56. 70.100 / 56. 70.100\n",
      "  libavcodec     58.134.100 / 58.134.100\n",
      "  libavformat    58. 76.100 / 58. 76.100\n",
      "  libavdevice    58. 13.100 / 58. 13.100\n",
      "  libavfilter     7.110.100 /  7.110.100\n",
      "  libswscale      5.  9.100 /  5.  9.100\n",
      "  libswresample   3.  9.100 /  3.  9.100\n",
      "  libpostproc    55.  9.100 / 55.  9.100\n",
      "Guessed Channel Layout for Input Stream #0.0 : stereo\n",
      "Input #0, wav, from '/mnt/disk1/tapearchive/B4/211014_0050.wav':\n",
      "  Duration: 02:09:53.42, bitrate: 1536 kb/s\n",
      "  Stream #0:0: Audio: pcm_s16le ([1][0][0][0] / 0x0001), 48000 Hz, stereo, s16, 1536 kb/s\n",
      "Stream mapping:\n",
      "  Stream #0:0 (pcm_s16le) -> channelsplit\n",
      "  dynaudnorm -> Stream #0:0 (flac)\n",
      "Press [q] to stop, [?] for help\n",
      "[flac @ 0x556ae3426980] encoding as 24 bits-per-sample\n",
      "Output #0, flac, to '/home/caiwan/test_R.flac':\n",
      "  Metadata:\n",
      "    encoder         : Lavf58.76.100\n",
      "    WAVEFORMATEXTENSIBLE_CHANNEL_MASK: 0x2\n",
      "  Stream #0:0: Audio: flac, 48000 Hz, 1 channels (FR), s32 (24 bit), 128 kb/s\n",
      "    Metadata:\n",
      "      encoder         : Lavc58.134.100 flac\n",
      "size=  750320kB time=02:09:53.42 bitrate= 788.7kbits/s speed= 711x    \n",
      "video:0kB audio:750312kB subtitle:0kB other streams:0kB global headers:0kB muxing overhead: 0.001084%\n",
      "\n",
      "Thread-14: tq.task_dispacher - DEBUG - Task posted: AudioConversionDone(task=ConvertAudio(source='/mnt/disk1/tapearchive/B4/211014_0050.wav', source_channel=<ChannelMode.RIGHT: 'right'>, target='/home/caiwan/test_R.flac'))\n",
      "Thread-12: tq.task_dispacher - INFO - Dispatch task: AudioConversionDone(task=ConvertAudio(source='/mnt/disk1/tapearchive/B4/211014_0050.wav', source_channel=<ChannelMode.RIGHT: 'right'>, target='/home/caiwan/test_R.flac'))\n",
      "Thread-12: tq.task_dispacher - DEBUG - Create job = <function AudioConverterHandler.conversion_done at 0x7f0a81844d30> for task = AudioConversionDone(task=ConvertAudio(source='/mnt/disk1/tapearchive/B4/211014_0050.wav', source_channel=<ChannelMode.RIGHT: 'right'>, target='/home/caiwan/test_R.flac'))\n",
      "Thread-8: tapearchive.workflow.audio_convert - INFO - Conversion done: AudioConversionDone(task=ConvertAudio(source='/mnt/disk1/tapearchive/B4/211014_0050.wav', source_channel=<ChannelMode.RIGHT: 'right'>, target='/home/caiwan/test_R.flac'))\n",
      "MainThread: root - INFO - [AudioConversionDone(task=ConvertAudio(source='/mnt/disk1/tapearchive/B4/211014_0050.wav', source_channel=<ChannelMode.LEFT: 'left'>, target='/home/caiwan/test_L.flac')), AudioConversionDone(task=ConvertAudio(source='/mnt/disk1/tapearchive/B4/211014_0050.wav', source_channel=<ChannelMode.RIGHT: 'right'>, target='/home/caiwan/test_R.flac'))]\n",
      "MainThread: tq.task_dispacher - DEBUG - Task posted: <tq.task_dispacher.TerminateDispatcherLoop object at 0x7f0a811466a0>\n",
      "Thread-12: tq.task_dispacher - DEBUG - schedule dispatch next tick\n"
     ]
    }
   ],
   "source": [
    "import waiting\n",
    "from contextlib import ExitStack\n",
    "\n",
    "from tq.task_dispacher import LocalTaskQueue, TaskDispatcher\n",
    "from tq.job_system import JobManager\n",
    "\n",
    "from tapearchive.models.records import ChannelMode\n",
    "from tapearchive.workflow.audio_convert import ConvertAudio, AudioConverterHandler\n",
    "\n",
    "# Do task\n",
    "task_queue = LocalTaskQueue()\n",
    "with ExitStack() as stack:\n",
    "    job_manager = stack.enter_context(JobManager())\n",
    "    dispatcher = stack.enter_context(TaskDispatcher(task_queue, job_manager))\n",
    "\n",
    "    audio_converter_handler = AudioConverterHandler()\n",
    "    dispatcher.register_task_handler(audio_converter_handler)\n",
    "\n",
    "    logging.debug(dispatcher.task_handlers)\n",
    "\n",
    "    dispatcher.post_task(ConvertAudio(\n",
    "        source=\"/mnt/disk1/tapearchive/B4/211014_0050.wav\",\n",
    "        source_channel=ChannelMode.LEFT,\n",
    "        target = \"/home/caiwan/test_L.flac\",\n",
    "    ))\n",
    "\n",
    "    dispatcher.post_task(ConvertAudio(\n",
    "        source=\"/mnt/disk1/tapearchive/B4/211014_0050.wav\",\n",
    "        source_channel=ChannelMode.RIGHT,\n",
    "        target = \"/home/caiwan/test_R.flac\",\n",
    "    ))\n",
    "\n",
    "    waiting.wait(lambda: len(audio_converter_handler.tasks_finished)==2, sleep_seconds=1, timeout_seconds=120)\n",
    "\n",
    "    logging.info(audio_converter_handler.tasks_finished)"
   ]
  }
 ],
 "metadata": {
  "interpreter": {
   "hash": "2f0a790571384805986ec1a58f388fd214deb8a028107103dda3e7fd720311de"
  },
  "kernelspec": {
   "display_name": "Python 3.8.10 64-bit ('tapearchive': pyenv)",
   "language": "python",
   "name": "python3"
  },
  "language_info": {
   "codemirror_mode": {
    "name": "ipython",
    "version": 3
   },
   "file_extension": ".py",
   "mimetype": "text/x-python",
   "name": "python",
   "nbconvert_exporter": "python",
   "pygments_lexer": "ipython3",
   "version": "3.8.10"
  },
  "orig_nbformat": 4
 },
 "nbformat": 4,
 "nbformat_minor": 2
}
